<svg xmlns="http://www.w3.org/2000/svg" width="78" height="140" fill="none" viewBox="0 0 78 140"><g clip-path="url(#a)" opacity="0.9"><path fill="#F7EBE7" d="M34.313 36.74 33.27 60.88l-4.903 17.703h8.827l4.584-15.253 1.433-17.334-8.898-9.257Z"/><path fill="#FCC9A7" d="m34.065 121.117 1.775 9.569-5.961.82-1.695-9.422 5.881-.967Z"/><path fill="#1F252A" d="M36.2 129.821c-.15-.516-.628-.7-.954-.369-.637.654-1.783 1.455-3.479 1.262-1.758-.203-2.42-1.4-2.674-2.266-.135-.451-.51-.681-.843-.488l-10.674 6.208c-.645.378-1.154 1.078-1.409 1.953-.238.819.24 1.703.908 1.685l18.441-.589c.724-.019 1.282-.848 1.218-1.806l-.303-4.697c-.008-.074-.015-.157-.04-.23l-.19-.663Z"/><path fill="#092330" d="M33.962 74.843h-13.84s-8.43-.543-8.93 7.46c-.502 8.005 12.36 30.902 14.374 43.133l11.572-1.105-8.333-33.259 20.726.138c1.536.01 3.064-.248 4.513-.829 4.035-1.62 10.195-3.942 6.837-16.8l-26.919 1.262Z"/><path fill="#FCC9A7" d="m44.645 121.153 2.818 11.44-5.961.82-2.738-11.292 5.881-.968Z"/><path fill="#1F252A" d="M47.819 131.727c-.151-.516-.629-.7-.955-.368-.637.654-1.783 1.455-3.478 1.262-1.76-.203-2.42-1.4-2.675-2.266-.135-.452-.509-.682-.843-.488l-10.674 6.207c-.644.378-1.153 1.078-1.408 1.953-.239.82.238 1.704.907 1.686l18.76-.59c.724-.018 1.281-.847 1.218-1.805l-.63-4.697a1.094 1.094 0 0 0-.039-.231l-.183-.663Z"/><path fill="#F7EBE7" d="M50.501 27.252c.31.35 14.2 4.449 14.2 4.449l-2.97 9.127-15.185-1.326 3.955-12.25Z"/><path fill="#F7EBE7" d="M44.773 29.454s-9.05 3.822-10.458 7.285c.485 4.891 1.974 9.598 4.425 13.623a41.985 41.985 0 0 1 6.041 24.481h26.162s-1.409-31.122-9.153-43.068l-17.017-2.321Z"/><path fill="#FCC9A7" d="M47.74 34.39c2.571-.608 4.227-3.509 3.701-6.484l-1.536-8.704-9.304 2.201 1.536 8.704c.526 2.975 3.033 4.891 5.603 4.283Z"/><path fill="#F4BE9A" d="M50.545 22.242s-.98 7.055-5.723 7.479c-4.155.368-3.757-6.586-3.757-6.586l9.48-.893Z"/><path fill="#FCC9A7" d="m45.195 25.852.82-.22c4.115-1.106 6.677-5.859 5.722-10.611l-1.082-5.425c-.955-4.762-5.062-7.728-9.17-6.623l-.819.221c-4.115 1.106-6.678 5.858-5.723 10.61l1.083 5.426c.955 4.762 5.062 7.727 9.169 6.622Z"/><path fill="#1C2226" d="M49.158 17.277c-.19.378-.374.95-.437 1.815-.072 1.096-.55 2.137-1.345 2.745-2.285 1.75-4.028-2.68-7.402-1.898 0 0-1.322.23-1.584 1.934-.263 1.695-2.102-1.27-2.508-3.297-.405-2.026-.612 10.03 7.697 9.008 0 0 4.194-.157 7.02-5.103.31-.543.493-1.179.51-1.833.023-.967-.096-2.431-.892-3.481-.279-.387-.836-.332-1.059.11Zm.008-2.735s-3.59-1.373-2.984-7.442c0 0-8.915 9.763-15.52 2.597 0 0 2.952-.912 4.17-3.251 2.22-4.265 8.604-10.141 13.714-3.344 0 0 6.216-1.114 4.433 9.966l-3.813 1.474Z"/><path fill="#FCC9A7" d="M49.167 14.542c.342 1.695 1.806 2.754 3.271 2.367 1.472-.396 2.38-2.09 2.045-3.786-.342-1.694-1.806-2.753-3.27-2.367-1.473.396-2.389 2.091-2.046 3.786Z"/><path fill="#0C2C40" d="m44.628 34.05 3.844.083-2.69 6.447-2.905-6.18 1.751-.35Z"/><path fill="#FFF7F3" d="m51.767 27.538-4.95 6.687 3.223 4.283 5.93-9.432s-1.521-2.828-4.203-1.538ZM44.63 34.05l-2.85 3.72-2.006-5.802s.526-2.607 2.165-2.11l2.69 4.192Z"/><path fill="#0C2C40" d="M45.678 38.498s-3.717 11.219-2.794 27.135l3.662 3.868 4.274-4.762-4.609-26.968-.533.727Z"/><path fill="#FCC9A7" d="m52.627 65.135-7.96 3.03-.525 5.407 10.554-3.647-2.07-4.79Z"/><path fill="#FCC9A7" d="M45.854 71.74c0 3.158-2.212 5.728-4.95 5.728-2.73 0-4.95-2.56-4.95-5.729 0-3.159 2.212-5.729 4.95-5.729 2.73 0 4.95 2.56 4.95 5.73Z"/><path fill="#0C2C40" d="M44.773 74.843H30.94s-8.429-.543-8.93 7.46c-.502 8.005 13.308 32.375 15.321 44.598l11.573-1.105-9.28-34.733 20.725.138c1.536.01 3.065-.249 4.513-.829 4.035-1.621 10.196-3.942 6.837-16.8l-26.926 1.271Z"/><path fill="#B2B2B2" d="M3.042 46.54h23.917c.788 0 1.465.635 1.632 1.528l4.505 24.445c.223 1.197-.573 2.33-1.632 2.33H7.15c-.796 0-1.48-.654-1.632-1.556L1.41 48.842c-.207-1.198.581-2.303 1.632-2.303Z"/><path fill="#D1D1D1" d="M1.665 46.54h23.91c.787 0 1.464.635 1.63 1.528l4.506 24.445c.223 1.197-.565 2.33-1.632 2.33H5.772c-.796 0-1.48-.654-1.632-1.556L.033 48.842c-.207-1.198.581-2.303 1.632-2.303Z"/><path fill="#B2B2B2" d="M32.444 72.752h16.34c.502 0 .9.47.9 1.041 0 .58-.406 1.041-.9 1.041H32.127l.318-2.082Z"/><path fill="#fff" d="M16.47 60.051c0 1.667-1.163 3.012-2.603 3.012-1.44 0-2.603-1.354-2.603-3.012 0-1.667 1.17-3.012 2.603-3.012 1.44 0 2.602 1.345 2.602 3.012Z"/><path fill="#F7EBE7" d="m58.994 40.396 8.739 16.33-20.917 8.64 2.865 7.165s17.885-2.32 26.528-10.03c.796-.71 1.194-1.86 1.059-3.012-.406-3.684-2.141-12.627-9.535-25.338-1.504-2.588-4.497-3.371-6.83-1.805-2.427 1.62-3.278 5.213-1.91 8.05Z"/><path stroke="#EADDD8" stroke-linecap="round" stroke-linejoin="round" stroke-miterlimit="10" stroke-width="0.7599" d="m52.381 63.063 15.354-6.337-7.681-14.36m-18.069 15.29-3.78-11.55m14.422 25.937s11.748-1.704 17.67-5.628"/></g><defs><clipPath id="a"><path fill="#fff" d="M0 0h78v140H0z"/></clipPath></defs></svg>