<svg xmlns="http://www.w3.org/2000/svg" width="24" height="24" fill="none" viewBox="0 0 24 24"><path fill="#FCFCFB" d="M22.038 4.135C21.388 3.647 19.578 3 11.994 3c-8.128 0-9.334.743-9.72.987C.213 5.277.017 10.986 0 12.144c.025 1.529.262 6.616 2.272 7.874.386.243 1.585.982 9.722.982 7.59 0 9.397-.644 10.044-1.13 1.755-1.316 1.957-5.849 1.962-7.746-.005-1.526-.158-6.635-1.962-7.99Zm-.875 14.468c-.261.196-1.76.835-9.17.835-7.162 0-8.665-.58-8.949-.758-.723-.452-1.486-2.852-1.546-6.54.06-3.681.833-6.368 1.548-6.814.284-.18 1.793-.764 8.948-.764 7.402 0 8.906.644 9.169.84.642.482 1.328 3.019 1.339 6.727-.01 3.766-.702 5.996-1.34 6.474Zm-4.284-7.217-6.74-4.312a.727.727 0 0 0-.756-.011.766.766 0 0 0-.279.286.807.807 0 0 0-.102.394v8.625c0 .207.079.406.22.552a.727.727 0 0 0 .917.117l6.74-4.314a.789.789 0 0 0 .362-.668.788.788 0 0 0-.361-.67ZM10.5 14.985v-5.86l4.543 2.93-4.542 2.93Z"/></svg>