<svg width="30" height="32" viewBox="0 0 30 32" fill="none" xmlns="http://www.w3.org/2000/svg">
<path d="M9.98606 4.666C9.82251 4.8446 9.73096 5.08435 9.73096 5.334C9.73096 5.58366 9.82251 5.82341 9.98606 6.002L19.1229 16L9.98606 25.996C9.82251 26.1746 9.73096 26.4143 9.73096 26.664C9.73096 26.9136 9.82251 27.1534 9.98606 27.332C10.0655 27.4191 10.1606 27.4883 10.2656 27.5356C10.3706 27.5828 10.4834 27.6072 10.5973 27.6072C10.7113 27.6072 10.8241 27.5828 10.929 27.5356C11.034 27.4883 11.1291 27.4191 11.2086 27.332L20.9248 16.698C21.0955 16.5112 21.191 16.2608 21.191 16C21.191 15.7392 21.0955 15.4887 20.9248 15.302L11.2086 4.668C11.1291 4.58092 11.034 4.5117 10.929 4.46444C10.8241 4.41717 10.7113 4.39282 10.5973 4.39282C10.4834 4.39282 10.3706 4.41717 10.2656 4.46444C10.1606 4.5117 10.0655 4.58092 9.98606 4.668V4.666Z" fill="black"/>
</svg>
