<svg width="30" height="32" viewBox="0 0 30 32" fill="none" xmlns="http://www.w3.org/2000/svg">
<path d="M20.0139 27.334C20.1775 27.1554 20.269 26.9157 20.269 26.666C20.269 26.4163 20.1775 26.1766 20.0139 25.998L10.8771 16L20.0139 6.00401C20.1775 5.82542 20.269 5.58567 20.269 5.33602C20.269 5.08636 20.1775 4.84661 20.0139 4.66801C19.9344 4.58093 19.8394 4.51171 19.7344 4.46445C19.6294 4.41718 19.5166 4.39284 19.4027 4.39284C19.2887 4.39284 19.1759 4.41718 19.071 4.46445C18.966 4.51171 18.8709 4.58093 18.7914 4.66801L9.07519 15.302C8.90454 15.4888 8.80904 15.7392 8.80904 16C8.80904 16.2608 8.90454 16.5113 9.07519 16.698L18.7914 27.332C18.8709 27.4191 18.966 27.4883 19.071 27.5356C19.1759 27.5828 19.2887 27.6072 19.4027 27.6072C19.5166 27.6072 19.6294 27.5828 19.7344 27.5356C19.8394 27.4883 19.9345 27.4191 20.0139 27.332L20.0139 27.334Z" fill="black"/>
</svg>
