<svg width="57" height="119" viewBox="0 0 57 119" fill="none" xmlns="http://www.w3.org/2000/svg">
<g opacity="0.7" clip-path="url(#clip0_9_1291)">
<path d="M46.2084 118.592C49.6407 118.624 53.5511 118.505 55.7452 116.628C56.2557 116.186 56.6467 115.636 56.5706 115.064C56.3969 113.835 54.3223 113.306 52.6169 113.101C42.6891 111.915 32.5333 112.378 22.4752 112.842C16.197 113.134 9.8537 113.435 3.86877 114.805C0.751411 115.517 -1.7251 117.384 2.2069 118.203C6.01942 119.001 11.8631 118.236 15.8603 118.279C25.9727 118.386 36.096 118.494 46.2084 118.592Z" fill="url(#paint0_linear_9_1291)"/>
<path d="M46.2111 118.592C49.6434 118.624 53.5538 118.505 55.7479 116.628C56.2583 116.186 56.6494 115.636 56.5733 115.064C56.3995 113.835 54.3249 113.306 52.6196 113.101C42.6918 111.915 32.536 112.378 22.4779 112.842C16.1997 113.134 9.85638 113.435 3.87145 114.805C0.754092 115.517 -1.72242 117.384 2.20959 118.203C6.02211 119.001 11.8658 118.236 15.863 118.279C25.9754 118.386 36.0987 118.494 46.2111 118.592Z" fill="url(#paint1_linear_9_1291)"/>
<path d="M19.9111 42.0383C19.9545 43.3327 19.8567 44.6055 19.9219 45.8999C19.9328 46.1265 19.9545 46.3638 20.074 46.5579C20.2586 46.8707 20.6388 46.9894 20.9864 47.0757C24.6794 48.0033 28.5137 48.2946 32.3045 47.9386C33.0866 47.8631 34.0098 47.6582 34.3031 46.8923C34.5312 46.2882 34.2596 45.6195 34.0206 45.0262C32.8801 42.157 33.7382 39.374 34.227 36.3213C31.2291 36.2782 27.0256 35.9114 24.0386 36.084C23.3 36.1272 21.649 35.9223 20.9212 36.0409C20.0957 36.1811 20.2478 36.5802 20.1066 37.4431C19.8567 38.8994 19.8459 39.8702 19.9111 42.0383Z" fill="#F0DCCE"/>
<path d="M19.9667 20.2599C19.0326 21.2954 18.6959 22.7085 18.3918 24.0676C17.349 28.7167 16.3063 33.3658 15.2635 38.0148C15.1223 38.6404 14.9811 39.2661 14.7748 39.8701C14.3077 41.2185 13.493 42.6099 13.8949 43.9799C14.1882 44.9722 15.1767 45.7273 16.2194 45.7596C16.4257 45.7704 16.643 45.7381 16.8277 45.6518C17.273 45.4361 17.4468 44.9075 17.5663 44.4329C18.7285 40.1829 20.021 35.9654 21.6612 31.8664C22.5193 29.7307 23.4752 27.6165 23.877 25.362C24.1486 23.8519 24.507 21.2631 23.6706 19.8501C22.8886 18.5017 20.7705 19.3646 19.9667 20.2599Z" fill="#D9924E"/>
<path d="M36.4899 48.0789C35.9033 46.9571 35.8272 46.3099 34.6868 45.7598C33.9373 45.4038 33.5028 45.7166 32.6773 45.6626C30.1791 45.5008 27.1486 45.4146 24.6504 45.4253C23.1406 45.4361 20.3165 45.5872 19.5561 46.8816C19.2411 47.4209 17.8726 49.8479 17.8074 50.4735C17.1882 56.773 17.9703 58.3909 17.8943 65.4995C17.8617 69.1666 18.4591 74.2257 18.5134 77.8935C18.5895 82.7583 19.6431 88.3346 19.7625 93.1995C19.8168 95.6161 19.9146 97.0615 19.6973 99.4775C19.5779 100.794 19.1869 101.257 20.4577 101.689C20.7727 101.796 21.4678 101.915 21.5765 101.592C22.5649 98.6574 22.3911 96.4575 22.7604 93.3828C24.053 82.3158 26.3339 72.7694 26.4426 61.6378L27.7134 61.6486C27.6157 68.6597 28.8322 75.2613 29.0494 82.2727C29.2341 87.9036 29.5056 93.523 29.8966 99.143C29.951 99.8873 30.0161 100.686 30.4723 101.29C30.9285 101.894 31.9061 102.153 32.4383 101.613C32.8728 94.5586 33.3181 87.4932 34.3826 80.5038C35.0669 76.0377 36.001 71.6154 36.4464 67.1172C36.7179 64.3236 37.0764 60.8935 37.1633 58.0889C37.2176 56.1257 37.2176 56.1257 37.1633 53.2026C37.1524 51.9406 37.5326 50.0852 36.4899 48.0789Z" fill="#441A19"/>
<path d="M37.7031 23.9707C37.5619 22.9784 37.3447 21.9752 36.8016 21.1338C36.1825 20.1846 35.2158 19.5266 34.2491 18.9441C33.4996 18.4911 32.6849 18.0488 31.8051 17.9949C31.0122 17.9409 30.2302 18.2106 29.4698 18.4371C27.3517 19.0627 25.3966 19.1491 23.2242 18.9118C21.4646 18.7176 21.0519 20.4866 20.5848 21.8889C19.2271 25.9986 20.3676 30.4643 20.1503 34.779C20.1177 35.4369 20.0418 36.0949 19.9548 36.7422L34.4772 37.1628C34.5641 33.258 38.2571 27.8108 37.7031 23.9707Z" fill="#D9924E"/>
<path d="M17.8271 111.332C17.6968 111.321 17.5556 111.321 17.4361 111.386C17.2949 111.461 17.2297 111.623 17.1646 111.764C16.3499 113.63 14.4817 115.032 12.4505 115.161C10.4084 115.301 8.31213 114.071 7.56265 112.184C7.24766 111.386 7.16073 110.512 7.01953 109.66C6.82404 108.452 6.49817 107.254 6.44387 106.035C6.38955 104.806 6.63938 103.511 7.45402 102.595C7.88852 103.911 8.50762 105.173 9.28968 106.327C9.73499 106.985 10.2564 107.621 10.9407 108.01C11.3969 108.268 11.9074 108.408 12.4179 108.549C13.5367 108.851 14.6446 109.153 15.7634 109.455C16.9908 109.789 18.2398 110.124 19.5107 110.135C20.0212 110.145 21.8678 110.491 20.901 111.267C20.2276 111.774 18.5766 111.375 17.8271 111.332Z" fill="#2B2B2B"/>
<path d="M29.9598 46.5796C29.6231 46.0511 29.1235 45.5009 28.4935 45.5225C28.1785 45.5333 27.8743 45.6843 27.5811 45.7922C26.8207 46.0726 25.9844 46.0834 25.1697 46.105C23.4536 46.1373 21.7266 46.1697 20.0103 46.202C19.565 46.2129 19.1088 46.2237 18.7287 46.461C18.2725 46.7522 18.0552 47.3562 18.2181 47.874C18.2507 47.9711 18.3051 48.0682 18.381 48.1437C18.4789 48.2407 18.6201 48.2731 18.7613 48.3163C19.7388 48.5644 20.7489 48.6722 21.7591 48.6398C22.5629 48.6183 23.3558 48.5104 24.1487 48.3918L30.1662 47.2268C30.1988 46.9895 30.0793 46.7738 29.9598 46.5796Z" fill="#DBDBDB"/>
<path d="M32.9665 112.152C33.3141 113.22 33.792 114.277 34.6284 115.021C35.6494 115.916 37.1049 116.24 38.4517 116.057C39.7986 115.873 41.0478 115.226 42.134 114.406C42.8617 113.845 43.5351 113.198 44.0239 112.422C44.7517 111.257 45.0341 109.876 45.2188 108.516C45.512 106.273 45.5663 103.911 44.6322 101.84C43.709 99.7683 41.5909 98.0965 39.3207 98.2908C37.1157 98.4741 33.5531 100.448 32.8362 102.67C31.8586 105.68 31.9998 109.153 32.9665 112.152Z" fill="#2B2B2B"/>
<path d="M37.3122 104.925C37.2796 104.105 37.2688 103.286 37.3774 102.465C37.4752 101.775 37.6598 101.063 38.1052 100.524C38.7894 99.693 39.9191 99.3913 40.9944 99.2942C41.2442 99.2723 41.505 99.262 41.7439 99.3482C41.9937 99.4344 42.2001 99.6177 42.3956 99.8011C42.8518 100.211 43.308 100.632 43.6556 101.128C44.0249 101.667 44.2638 102.304 44.4485 102.929C45.0459 104.968 45.1545 107.147 44.7744 109.239L44.6983 109.617C44.4268 110.458 44.2312 110.998 43.8076 111.785C43.4709 112.411 43.069 113.026 42.4934 113.446C41.9177 113.867 40.8532 113.382 40.2015 113.09C39.8105 112.917 39.5172 112.594 39.2565 112.26C37.6816 110.221 37.41 107.503 37.3122 104.925Z" fill="#D9D9D9"/>
<path d="M40.1657 104.817C40.2417 104.558 40.3286 104.299 40.5241 104.105C40.926 103.706 41.6646 103.836 42.0665 104.245C42.4684 104.655 42.6096 105.238 42.7074 105.799C42.8811 106.845 42.9028 107.988 42.3598 108.905C42.1316 109.293 41.7297 109.66 41.2735 109.617C40.7087 109.563 40.3937 108.948 40.1982 108.42C40.0136 107.945 39.8289 107.46 39.7312 106.953C39.5683 106.187 39.9375 105.55 40.1657 104.817Z" fill="#2B2B2B"/>
<path d="M8.53966 98.9817C9.05013 98.5932 9.63665 98.3339 10.2341 98.1185C11.3529 97.7087 12.5694 97.4392 13.7316 97.7087C15.0893 98.0323 16.1755 99.0569 17.0119 100.168C17.5441 100.88 18.0329 101.678 18.7824 102.153C19.206 102.422 19.76 102.563 20.2596 102.498C21.2698 102.821 22.5949 102.725 23.3987 102.725C24.8216 102.725 26.2662 102.628 27.6891 102.725C28.721 102.8 29.7095 103.005 30.7522 102.854C30.8174 102.843 30.8717 102.832 30.9151 102.811C31.795 102.692 32.0991 101.603 32.3923 100.762C32.729 99.7902 33.3264 98.9058 34.1085 98.2156C35.0535 97.3852 36.3135 96.9104 37.5735 96.8564C38.5945 96.8133 40.4519 97.0719 41.0275 98.0432C39.5394 98.8948 37.7472 99.4127 36.194 100.179C35.3033 100.61 34.4018 101.095 33.7827 101.851C33.1527 102.628 32.8702 103.609 32.5987 104.569C32.2186 105.928 31.8384 107.33 32.0339 108.722C32.0556 108.884 32.0882 109.078 31.9904 109.218C31.9145 109.337 31.7624 109.391 31.6212 109.434C30.8282 109.682 30.0245 109.822 29.2098 109.962C27.3198 110.297 25.419 110.642 23.529 110.976C23.1271 111.052 22.7253 111.116 22.3234 111.095C21.7694 111.062 21.2481 110.858 20.7267 110.696C19.521 110.329 18.261 110.189 17.0119 110.027C15.0242 109.768 13.0256 109.412 11.2225 108.549C9.41947 107.686 7.81187 106.252 7.1602 104.375C6.48675 102.509 6.94295 100.19 8.53966 98.9817Z" fill="#E5E5E5"/>
<path d="M28.4282 104.245C27.3855 104.979 26.4622 105.895 25.3435 106.521C25.1805 106.607 25.0176 106.693 24.8981 106.834C24.5397 107.243 24.7895 107.923 25.2457 108.215C25.7019 108.505 26.2776 108.516 26.8098 108.516C27.8743 108.516 28.9496 108.527 30.014 108.527C30.4268 108.527 30.9156 108.495 31.122 108.139C31.2741 107.891 31.2197 107.578 31.1871 107.287C31.1111 106.661 31.1329 106.025 31.2415 105.41C31.3066 105.076 31.3935 104.741 31.513 104.418C31.5891 104.202 31.9475 103.706 31.9366 103.49C31.828 102.335 28.8953 103.922 28.4282 104.245Z" fill="#2B2B2B"/>
<path d="M19.5546 106.521C19.4134 106.834 19.2504 107.157 18.9789 107.373C18.653 107.632 18.2077 107.708 17.7841 107.761C15.9376 107.988 14.0693 107.956 12.2337 107.697C11.9404 107.654 11.5711 107.546 11.5168 107.254C11.4625 106.974 11.734 106.748 11.9838 106.586C13.4176 105.669 14.8949 104.806 16.3721 103.943C16.8608 103.663 17.3496 103.382 17.8818 103.21C18.4684 103.026 20.2389 102.627 20.5539 103.393C20.8363 104.072 19.8478 105.885 19.5546 106.521Z" fill="#2B2B2B"/>
<path d="M28.2461 109.315C27.0947 109.455 25.9434 109.606 24.8138 109.887C24.477 109.973 24.1186 110.081 23.8579 110.307C23.5864 110.534 23.4234 110.922 23.5538 111.246C23.7602 111.763 24.477 111.796 25.031 111.742C27.1599 111.537 29.2888 111.332 31.4178 111.116C31.6785 111.095 31.9717 111.051 32.1672 110.879C32.417 110.653 32.4496 110.264 32.4062 109.93C32.2758 108.819 32.0152 108.841 31.0051 108.97C30.0926 109.088 29.1693 109.196 28.2461 109.315Z" fill="#2B2B2B"/>
<path d="M31.3491 40.7654C30.7734 40.7761 30.2412 41.0566 29.8176 41.4341C29.3939 41.8224 29.0898 42.3079 28.8291 42.804C28.6988 43.0629 28.5684 43.3218 28.5032 43.6022C28.4272 43.8935 28.4164 44.2063 28.449 44.5084C28.6228 46.1911 30.1543 47.5826 31.8379 47.8198C32.2832 47.8846 32.772 47.863 33.1522 47.6365C33.4237 47.4747 33.6192 47.2158 33.7713 46.9569C34.4882 45.7596 34.4773 44.325 33.9668 43.0521C33.5323 41.9627 32.6633 40.733 31.3491 40.7654Z" fill="#2B2B2B"/>
<path d="M22.9762 45.5657C23.4432 45.3391 23.8668 44.9939 24.095 44.5301C24.2471 44.2173 24.3013 43.8721 24.3339 43.5162C24.3774 42.9013 24.2905 42.1894 23.7909 41.8334C23.3781 41.5314 22.7916 41.5745 22.3245 41.7903C21.8574 42.006 21.4881 42.3728 21.108 42.718C20.1521 43.5917 19.1094 44.3683 17.9363 44.9184C16.9261 45.393 15.84 45.6843 14.8189 46.1373C14.417 46.3207 14.0152 46.5364 13.7328 46.8708C13.4612 47.1944 13.32 47.6259 13.3851 48.0358C13.4504 48.4457 13.7219 48.834 14.1129 48.9958C14.2976 49.0713 14.5039 49.1036 14.7103 49.1144C15.8074 49.19 16.9261 48.9527 17.882 48.4133C18.5554 48.0466 19.1419 47.5396 19.8045 47.1728C20.3693 46.86 20.9885 46.6443 21.4881 46.2236C21.9117 45.8569 22.4657 45.8137 22.9762 45.5657Z" fill="#2B2B2B"/>
<path d="M19.9053 96.2304C19.7968 96.2195 19.6773 96.1983 19.5795 96.2414C19.2862 96.3385 19.2536 96.7373 19.2645 97.0396C19.2971 98.2045 19.2319 99.3694 19.0581 100.513C18.9929 100.944 18.9061 101.387 18.6671 101.753C18.4281 102.109 18.0588 102.357 17.7113 102.617C16.9183 103.199 16.2014 103.857 15.5606 104.59C15.3325 104.86 15.1044 105.141 15.0175 105.485C14.8763 106.068 15.1913 106.704 15.6909 107.061C16.1797 107.416 16.8097 107.546 17.418 107.568C17.7113 107.578 18.0263 107.568 18.2978 107.46C18.6019 107.33 18.8409 107.071 19.069 106.823C19.7859 106.025 20.5136 105.227 21.2305 104.429C21.6758 103.943 22.1212 103.436 22.4253 102.853C23.1422 101.441 22.8815 99.8223 22.8163 98.3126C22.7946 97.7298 23.0227 96.8775 22.5556 96.5649C22.0235 96.2195 20.5462 96.3166 19.9053 96.2304Z" fill="#404040"/>
<path d="M25.0486 69.0053C25.3419 73.05 25.255 77.1815 25.3202 81.2372C25.3962 85.5623 24.9834 89.8663 24.5707 94.1702C24.2774 97.2661 23.4411 103.231 23.1478 106.327C23.0934 106.867 23.0392 107.427 22.7567 107.891C22.4852 108.355 21.9204 108.711 21.3882 108.56C20.5735 108.333 20.4432 107.254 20.4866 106.403C20.9862 96.8564 21.5294 84.8721 22.029 75.3258C22.1159 73.5999 22.1268 72.1546 22.0398 70.4287C21.953 68.8001 22.1159 67.0852 22.0833 64.8628C21.9639 56.8916 22.5178 54.7989 23.7452 47.1619C23.8538 46.4608 23.995 45.7165 24.5164 45.2311C26.0588 43.7857 26.6018 46.1803 26.124 47.2806C25.3201 49.1251 25.1572 50.851 24.9617 52.8897C24.5272 57.625 24.6901 56.3738 24.7227 61.1415C24.7662 63.7734 24.8639 66.384 25.0486 69.0053Z" fill="#D9D9D9"/>
<path d="M33.0207 96.1012C33.1402 96.6081 33.0858 97.1477 33.0316 97.6656C32.7057 100.642 32.3798 103.609 32.0539 106.586C32.0214 106.888 31.9779 107.211 31.7715 107.449C31.5977 107.654 31.3262 107.74 31.0655 107.815C30.2943 108.053 29.458 108.258 28.6868 108.031C27.9155 107.805 27.2639 106.964 27.5354 106.208C27.6875 105.799 28.0567 105.507 28.3283 105.162C29.0018 104.31 29.0561 103.145 29.0778 102.067C29.1212 100.394 28.8714 98.431 29.1973 96.8023C29.3602 96.0259 29.5992 96.0903 30.3486 96.1552C31.2502 96.2202 32.13 96.2305 33.0207 96.1012Z" fill="#404040"/>
<path d="M15.1344 47.6904C15.1561 48.4131 15.3842 49.2005 16.0142 49.578C16.7202 50.0095 17.6326 49.7506 18.3712 49.3947C18.5233 49.3191 18.6754 49.2436 18.8166 49.125C19.2402 48.769 19.3488 48.1758 19.4031 47.6257C19.4248 47.4423 19.4357 47.2589 19.3814 47.0863C19.2836 46.7843 18.9795 46.5901 18.8383 46.2989C18.5776 45.7488 18.9578 44.9721 18.5233 44.5514C18.2952 44.3249 17.9259 44.3141 17.6109 44.3465C16.9592 44.4112 16.3183 44.5946 15.7209 44.8858C14.8303 45.3173 15.1127 46.849 15.1344 47.6904Z" fill="#F0DCCE"/>
<path d="M30.9592 43.1279C31.7304 43.5486 32.5016 43.98 33.2402 44.4655C33.5552 44.6811 33.8702 44.9077 34.2395 45.0048C34.6088 45.1018 35.0432 45.0479 35.3039 44.7675C35.5538 44.487 35.5538 44.0555 35.4126 43.7212C35.2714 43.376 35.0107 43.1064 34.75 42.8366C33.9896 42.0493 33.2185 41.251 32.23 40.7656C31.7304 40.5175 31.1547 40.3557 30.6007 40.4204C29.8621 40.5068 28.7651 41.2833 28.776 42.1247C28.776 42.8906 30.2532 42.7396 30.9592 43.1279Z" fill="#F0DCCE"/>
<path d="M34.4803 19.9903C35.0777 20.1413 35.5556 20.5943 35.9684 21.0366C36.5441 21.6514 37.0871 22.3202 37.5216 23.043C38.2819 24.3266 38.6947 25.772 39.1075 27.2066C39.8895 29.9572 40.6716 32.7078 41.4537 35.4584C41.6708 36.2027 41.8773 36.9794 41.7469 37.7452C41.5623 38.7591 40.8128 39.5574 40.085 40.3016C39.3247 41.0783 38.5535 41.8549 37.7932 42.6316C37.3261 43.1062 36.8482 43.5916 36.2508 43.8936C35.6534 44.1956 34.9039 44.282 34.3174 43.9368C33.5462 43.4945 33.329 42.4374 33.5896 41.5853C33.8503 40.7439 34.4912 40.0752 35.132 39.4603C35.7729 38.8455 36.4463 38.2414 36.8482 37.454C37.4239 36.2998 37.3261 34.9083 36.9025 33.6894C36.4789 32.4705 35.7837 31.3703 35.1646 30.2376C33.9915 28.0588 33.1552 25.7073 32.6772 23.291C32.4491 22.0829 32.46 19.4725 34.4803 19.9903Z" fill="#D9924E"/>
<path d="M24.2013 18.5989C23.7885 19.0196 23.2019 19.2353 22.7024 19.5589C21.6379 20.2709 20.997 21.576 21.1165 22.8489C21.1599 23.3343 21.3011 23.8413 21.1165 24.2943C20.9319 24.7581 20.4322 25.1033 20.4213 25.6102C20.4104 26.1172 20.9101 26.484 21.3989 26.6134C22.3439 26.8615 23.3758 26.5271 24.1144 25.8907C24.853 25.2543 25.3092 24.359 25.5916 23.4313C25.711 23.043 25.8088 22.6224 26.0695 22.3095C26.5148 21.7486 27.3186 21.63 27.8943 21.1985C28.5243 20.7346 28.8284 19.9256 28.861 19.1491C28.9045 18.3724 28.7089 17.5957 28.5026 16.8406C28.4048 16.4739 28.2962 16.0964 28.0029 15.8591C27.7205 15.6433 27.3403 15.611 26.9819 15.6002C26.3954 15.5679 25.7871 15.5462 25.2549 15.7943C23.8754 16.4416 25.0811 17.7036 24.2013 18.5989Z" fill="#D7C68E"/>
<path d="M22.2483 11.1669C22.6719 13.0762 23.2258 15.0933 24.7139 16.3661C25.8001 17.2938 27.3099 17.6929 28.7219 17.4232C30.1231 17.1535 31.3831 16.2259 32.0457 14.9746C32.3606 14.3813 32.5453 13.7234 32.6974 13.0654C33.1862 10.908 33.36 8.67519 33.1862 6.47472C33.121 5.69806 33.0015 4.87827 32.4476 4.32815C31.8828 3.76724 31.0246 3.6378 30.2318 3.54072C28.6025 3.34656 26.9406 3.14161 25.3222 3.476C23.9753 3.74567 22.1722 4.6086 21.5857 5.96773C20.9665 7.36999 21.9115 9.68914 22.2483 11.1669Z" fill="#F0DCCE"/>
<path d="M20.909 5.95684C21.0394 5.20177 21.2675 4.4467 21.6585 3.77793C22.5709 2.20307 24.2979 1.24306 26.0684 0.779226C28.5666 0.121238 31.3364 0.358549 33.5848 1.64216C35.8333 2.91499 37.4734 5.27727 37.6689 7.83375C37.7884 9.35463 37.4082 10.8756 36.9303 12.3318C36.5827 13.3781 36.2134 14.6185 36.8651 15.5139C37.6146 16.5494 39.4503 16.668 39.7544 17.9085C40.0477 19.1274 38.4835 20.2492 38.8311 21.4573C38.9832 22.0074 39.4937 22.3634 39.8195 22.838C40.5147 23.8735 40.1128 25.4053 39.1136 26.1495C38.1143 26.8938 36.6804 26.9154 35.54 26.3869C35.1598 26.2143 34.8014 25.9769 34.5516 25.6641C34.1171 25.1248 33.9976 24.4021 33.9976 23.7118C34.0084 21.9859 34.6276 20.1521 33.8781 18.5989C33.2915 17.3799 31.8904 16.4415 31.9664 15.0932C32.0207 14.1223 32.8788 13.2594 32.7159 12.2994C32.5856 11.5336 31.8687 11.0374 31.4451 10.3902C30.8477 9.48411 30.8585 8.32988 30.6521 7.26203C30.4457 6.19414 29.8158 5.02919 28.7296 4.91053C27.8715 4.81345 27.0677 5.40671 26.2096 5.40671C25.7317 5.40671 25.2646 5.22335 24.7867 5.14784C24.3088 5.08312 23.744 5.18021 23.4941 5.5901C23.3312 5.84898 23.3421 6.18335 23.3638 6.48538C23.4072 7.33755 23.4398 8.18972 23.4833 9.04182C23.5267 10.0342 23.5267 11.156 22.8207 11.868C22.7121 11.9758 22.5818 12.0837 22.56 12.2239C22.5383 12.3426 22.5818 12.4612 22.6252 12.5691C22.7772 12.9466 23.2009 13.5614 22.9402 13.9498C21.9626 13.1516 21.3978 11.3718 21.1045 10.1852C20.9308 9.48411 20.833 8.77217 20.8004 8.04949C20.7352 7.34835 20.9525 6.62561 20.909 5.95684Z" fill="#D7C68E"/>
</g>
<defs>
<linearGradient id="paint0_linear_9_1291" x1="0.173339" y1="115.481" x2="56.5787" y2="115.481" gradientUnits="userSpaceOnUse">
<stop stop-color="#4D4D4D"/>
<stop offset="1"/>
</linearGradient>
<linearGradient id="paint1_linear_9_1291" x1="0.176023" y1="115.481" x2="56.5814" y2="115.481" gradientUnits="userSpaceOnUse">
<stop/>
<stop offset="1"/>
</linearGradient>
<clipPath id="clip0_9_1291">
<rect width="57" height="119" fill="white"/>
</clipPath>
</defs>
</svg>
