<svg width="85" height="95" viewBox="0 0 85 95" fill="none" xmlns="http://www.w3.org/2000/svg">
<g opacity="0.7" clip-path="url(#clip0_9_1235)">
<path d="M43.1278 93.0327C45.2044 92.9903 47.2884 92.9564 49.3577 92.7275C50.3924 92.6174 51.4339 92.4562 52.4255 92.109C53.2069 91.8377 54.0245 91.3803 54.3861 90.5243C54.4366 90.4056 54.4801 90.2702 54.4586 90.1347C54.4439 89.9988 54.3718 89.8886 54.2847 89.7957C53.8653 89.3126 53.2142 89.2954 52.6278 89.304C46.8901 89.3975 41.1525 89.5243 35.4293 90.0665C34.4019 90.1686 33.2369 90.3631 32.6436 91.3546C31.3485 93.5158 35.8055 93.0408 36.6086 93.0666C38.7865 93.1171 40.9571 93.0752 43.1278 93.0327Z" fill="url(#paint0_linear_9_1235)"/>
<path d="M43.1263 93.0327C45.2029 92.9903 47.2869 92.9564 49.3562 92.7275C50.3909 92.6174 51.4324 92.4562 52.424 92.109C53.2054 91.8377 54.023 91.3803 54.3846 90.5243C54.4355 90.4056 54.4786 90.2702 54.4571 90.1347C54.4424 89.9988 54.3703 89.8886 54.2836 89.7957C53.8638 89.3126 53.2127 89.2954 52.6263 89.304C46.8886 89.3975 41.1511 89.5243 35.4278 90.0665C34.4004 90.1686 33.2355 90.3631 32.6421 91.3546C31.347 93.5158 35.804 93.0408 36.6071 93.0666C38.785 93.1171 40.9557 93.0752 43.1263 93.0327Z" fill="url(#paint1_linear_9_1235)"/>
<path d="M28.5134 61.1543C30.0618 70.0686 34.4682 78.034 36.0093 86.9569C36.1107 87.542 36.2047 88.1434 36.4796 88.6351C36.7618 89.1262 37.2828 89.4906 37.7675 89.3385C38.6503 89.0585 38.643 87.6178 38.52 86.5587C38.1582 83.3979 38.4694 80.1866 38.7877 77.0173C39.2797 72.0773 39.7718 67.1368 40.2638 62.1882C40.6328 61.7389 41.2985 61.8405 41.7037 62.2473C42.1088 62.646 42.3042 63.2559 42.4633 63.8491C43.1795 66.4844 43.4763 69.2384 43.7801 71.9752C44.3807 77.4579 44.974 82.9492 45.0464 88.4739C45.4732 88.5077 45.9003 88.5416 46.327 88.5673C48.078 83.0932 49.3948 77.4493 50.6323 71.7973C51.2618 68.9332 51.8693 66.0609 52.2676 63.1372C52.7883 59.2988 52.926 55.4007 53.0343 51.5199C53.0559 50.7316 53.0632 49.8926 52.6796 49.2402C52.3396 48.664 51.7537 48.3674 51.1893 48.1132C46.3486 45.9354 41.1465 45.1304 35.9803 44.6559C34.526 44.5203 33.0573 44.4186 31.6246 44.7237C30.4959 44.9609 29.2659 45.4863 28.4194 46.4353C27.4643 47.5115 27.7754 49.2148 27.7681 50.6977C27.7537 54.1976 27.9129 57.7141 28.5134 61.1543Z" fill="#666666"/>
<path d="M25.4514 41.3679C24.9739 43.0627 24.5977 45.071 25.4804 46.5285C25.9 47.2149 26.5367 47.6639 27.1807 48.0453C30.7984 50.1807 34.9371 50.6805 38.9672 51.1383C42.5994 51.5532 46.246 51.9686 49.8928 51.7397C51.6294 51.6295 53.4597 51.3334 54.8128 50.0536C56.1008 48.8418 56.7739 46.9013 56.9547 44.9778C57.1354 43.0542 56.8895 41.1137 56.6362 39.1986C56.3614 37.0971 56.0865 34.9956 55.6162 32.945C54.7986 29.3775 53.373 26.0049 51.4629 23.0729C50.0157 20.8613 48.2575 18.8615 46.1014 17.6751C44.061 16.5481 40.9642 16.0312 38.8443 17.243C36.7243 18.4462 34.7779 21.912 33.3597 24.0475C29.9084 29.2419 27.2096 35.1227 25.4514 41.3679Z" fill="#FCEE9F"/>
<path d="M45.6619 11.5061C45.6404 11.9552 45.6188 12.4128 45.51 12.8534C45.2425 13.8957 44.4318 14.8363 43.3324 15.3363C42.2324 15.8362 40.8649 15.8955 39.7361 15.4549C38.6147 15.0227 37.7898 14.1753 37.1314 13.2856C35.7567 11.4214 34.9535 9.20118 35.1416 6.99799C35.1706 6.66751 35.2285 6.32859 35.4673 6.06588C35.8073 5.69305 36.4078 5.60831 36.9505 5.55748C38.7377 5.37101 43.694 4.04912 45.1627 5.05751C46.6172 6.05739 45.7344 10.1079 45.6619 11.5061Z" fill="#F2D6C9"/>
<path d="M31.2186 5.1762C31.4791 6.47269 32.89 7.45564 34.4022 7.68445C35.9144 7.90477 37.47 7.48106 38.7869 6.80317C40.1906 6.0744 41.5074 5.01519 43.1427 4.95587C43.4463 4.94739 43.7578 4.97282 44.018 5.09146C44.3075 5.22703 44.5172 5.47277 44.6838 5.71851C45.6171 7.07433 45.7547 8.71823 45.8703 10.2859C46.3695 8.92162 46.7678 7.53189 47.05 6.1168C47.3611 4.57454 47.4478 2.76962 46.1452 1.69345C45.1541 0.871485 43.6275 0.727429 42.2527 0.871485C40.3208 1.07486 38.4613 1.76972 36.9636 2.83742C36.3703 3.26111 35.8276 3.74412 35.1764 4.11697C34.5325 4.48134 33.751 4.73555 32.9841 4.61692C32.1448 4.48134 31.9784 3.87969 31.3923 3.54073C31.1535 4.01527 31.1173 4.65082 31.2186 5.1762Z" fill="#D1B380"/>
<path d="M48.6488 27.2675C48.1133 26.115 47.3246 25.1744 46.6589 24.1237C45.9931 23.0729 45.4361 21.8357 45.4939 20.5308C45.5517 19.2258 46.4276 17.9039 47.5416 17.9124C48.0046 17.9124 48.4387 18.1327 48.8512 18.3784C50.19 19.1665 51.4128 20.2427 52.4181 21.5477C52.8091 22.0561 53.1706 22.5984 53.4239 23.217C53.7932 24.1237 53.8942 25.149 53.9883 26.1489C54.1475 27.9115 54.2778 29.6995 53.9525 31.4281C53.4821 33.894 51.9772 36.0972 49.9872 37.0887C49.5605 37.3005 48.909 37.6649 48.5038 37.3937C48.0698 37.1056 47.9904 36.4446 48.0844 35.9447C48.3304 34.5719 49.1333 33.4364 49.3141 31.9789C49.4953 30.3774 49.3141 28.6995 48.6488 27.2675Z" fill="#F2D6C9"/>
<path d="M46.3285 36.9106C46.2413 36.9785 46.1546 37.0547 46.0895 37.1479C45.9302 37.3852 45.9233 37.7072 45.9233 38.0122C45.9233 38.4952 45.9665 39.063 46.3212 39.3087C46.4804 39.4189 46.6758 39.4358 46.864 39.4443C47.059 39.4528 47.2544 39.4698 47.4499 39.4782C47.6596 39.4952 47.884 39.5036 48.0574 39.3681C48.2386 39.2325 48.318 38.9783 48.3905 38.741C48.564 38.1564 48.7378 37.5801 48.9113 36.9954C48.9402 36.8937 48.9691 36.7836 48.9333 36.6903C48.9113 36.631 48.8608 36.5886 48.8172 36.5547C48.4047 36.1819 48.2097 35.9955 47.6816 36.1311C47.2402 36.2412 46.6469 36.5378 46.3285 36.9106Z" fill="#F2D6C9"/>
<path d="M50.2277 88.9655C49.9675 88.6855 49.584 88.6431 49.2366 88.6178C48.7158 88.5754 48.1946 88.5249 47.6738 88.4824C47.4495 88.4652 47.2109 88.44 47.0297 88.2874C46.9576 88.2282 46.8998 88.1433 46.8489 88.0584C46.6827 88.0584 46.5235 88.0504 46.357 88.0504C45.7564 88.0332 45.1558 88.2959 44.5698 88.5077C44.6928 89.1095 44.8084 89.7028 44.9314 90.3041C44.9534 90.4228 44.9823 90.5502 45.0617 90.626C45.1415 90.7023 45.2572 90.7109 45.3659 90.7109C47.1021 90.7619 48.8461 90.6856 50.5751 90.4906C50.5897 89.9398 50.5751 89.3212 50.2277 88.9655Z" fill="black"/>
<path d="M38.2435 88.4227C38.2724 89.2277 38.2941 90.0751 37.9758 90.7957C37.7515 91.304 37.3753 91.6851 37.0063 92.0666C36.8109 92.2616 36.6227 92.4562 36.4274 92.6598C36.3767 92.7104 36.3188 92.77 36.2537 92.7952C36.1814 92.821 36.1018 92.821 36.0295 92.8124C35.6966 92.7952 35.371 92.8291 35.0382 92.8038C34.7126 92.77 34.3725 92.6598 34.141 92.3804C33.9095 92.1004 33.8371 91.6259 34.0397 91.3207C34.1699 91.1262 34.387 91.0327 34.5751 90.9225C35.1467 90.6173 35.6388 90.1176 35.9716 89.4991C36.1814 89.1095 36.3767 88.7027 36.7602 88.5415C36.905 88.4824 38.2435 88.304 38.2435 88.4227Z" fill="black"/>
<path d="M49.9309 35.2244C49.8515 35.0295 49.7643 34.8346 49.6271 34.699C49.4463 34.5295 49.2 34.521 48.9756 34.5125C44.9456 34.36 40.9083 34.199 36.8782 34.0465C36.5525 34.0295 36.2558 34.2753 36.1184 34.6482C35.4672 36.4446 34.693 37.9529 34.201 39.8257C34.1359 40.0798 34.2878 40.3341 34.5049 40.3425C39.946 40.4273 45.6692 41.1137 51.1032 40.5798C51.4721 40.5459 51.6965 40.0545 51.5372 39.6392C50.9945 38.1987 50.4663 36.5124 49.9309 35.2244Z" fill="#7F7F7F"/>
<path d="M49.8229 34.8092C49.7436 34.6143 49.6637 34.4194 49.5192 34.2838C49.338 34.1143 49.0994 34.1059 48.8823 34.0974C44.9244 33.9449 40.9668 33.7839 37.0162 33.6313C36.6979 33.6144 36.4012 33.8601 36.2709 34.233C35.627 36.0294 34.8673 37.5377 34.3897 39.4104C34.3246 39.6647 34.4766 39.9189 34.6864 39.9273C40.0262 40.0121 45.6407 40.6985 50.9733 40.1646C51.3353 40.1307 51.5523 39.6393 51.4004 39.224C50.8723 37.7835 50.3511 36.0972 49.8229 34.8092Z" fill="#666666"/>
<path d="M49.1938 35.1905C49.1213 35.0549 49.0488 34.9108 48.9185 34.8176C48.7597 34.699 48.5427 34.6905 48.3399 34.682C44.7729 34.5719 41.2057 34.4532 37.6386 34.3431C37.3493 34.3346 37.0888 34.5041 36.9658 34.7752C36.3869 36.0632 35.6995 37.1479 35.2727 38.4952C35.2148 38.6732 35.3522 38.8596 35.5403 38.8681C40.3592 38.9274 45.424 39.4273 50.2284 39.0376C50.5538 39.0122 50.7566 38.6563 50.612 38.3596C50.1417 37.3259 49.6714 36.1141 49.1938 35.1905Z" fill="#F0F0F0"/>
<path d="M44.4948 35.5634C44.4732 35.5973 44.4805 35.6396 44.4879 35.682C44.6324 36.6565 44.7769 37.6479 45.0954 38.5631C46.0506 38.5631 47.0055 38.5631 47.9608 38.5716C48.2645 38.5716 48.5687 38.5716 48.8578 38.5038C48.5394 37.5377 48.214 36.5718 47.8956 35.6058C46.8031 35.6396 45.7107 35.6142 44.6251 35.5295C44.5746 35.521 44.5237 35.521 44.4948 35.5634Z" fill="#E0C74E"/>
<path d="M43.2973 35.4616C41.5392 35.5718 39.7954 35.5379 38.0372 35.4616C37.8997 35.4532 37.8997 35.6989 38.0372 35.7159C39.7882 35.8684 41.5464 35.843 43.2973 35.7413C43.4492 35.7328 43.4565 35.4532 43.2973 35.4616Z" fill="#CACACA"/>
<path d="M43.4738 36.2498C41.7518 36.2414 40.0297 36.3007 38.3149 36.4109C38.1847 36.4193 38.1847 36.6565 38.3149 36.6481C40.037 36.5549 41.7518 36.5295 43.4738 36.5379C43.633 36.5379 43.633 36.2498 43.4738 36.2498Z" fill="#CACACA"/>
<path d="M43.4743 37.2411C41.6656 37.1478 39.8495 37.1309 38.0406 37.1394C37.9031 37.1394 37.9031 37.3851 38.0406 37.3851C39.8567 37.419 41.6656 37.4868 43.4743 37.5376C43.6335 37.5376 43.6335 37.2495 43.4743 37.2411Z" fill="#CACACA"/>
<path d="M42.9918 37.9954C41.3855 37.9784 39.772 38.0123 38.1585 38.0292C38.0211 38.0292 38.0211 38.2749 38.1585 38.2749C39.7648 38.2919 41.3783 38.3258 42.9918 38.3089C43.1652 38.3089 43.1652 38.0038 42.9918 37.9954Z" fill="#CACACA"/>
<path d="M36.3323 36.953C36.6289 36.9869 36.9328 37.0207 37.2295 36.953C37.4755 36.9021 37.7142 36.7836 37.9168 36.6141C38.2352 36.3514 38.474 35.9276 38.4957 35.4701C38.5101 35.0125 38.2641 34.538 37.8879 34.4108C37.7142 34.3515 37.5333 34.3685 37.3524 34.4108C36.5565 34.5718 35.833 35.1057 35.0298 35.1735C34.7332 35.1989 34.4004 35.1735 34.1906 35.4107C34.0748 35.5463 34.0169 35.7328 33.988 35.9277C33.959 36.131 33.9518 36.3598 34.0386 36.5378C34.205 36.8852 34.6898 36.775 34.9792 36.8005C35.4278 36.8513 35.8764 36.9021 36.3323 36.953Z" fill="#F2D6C9"/>
<path d="M31.0524 20.6833C29.721 21.8528 28.6357 23.3696 27.6011 24.8948C26.646 26.31 25.6982 27.7929 25.2278 29.5131C24.7575 31.2333 24.8371 33.2585 25.7922 34.6736C26.7618 36.1057 28.3825 36.6311 29.9164 36.9785C30.5242 37.1141 31.1465 37.2412 31.7687 37.1904C32.4561 37.1395 33.5631 37.292 34.2215 37.0379C34.576 36.9023 34.5761 36.504 34.8438 36.1989C35.1115 35.8939 35.1694 35.2329 34.9812 34.8601C33.867 34.7753 32.7527 34.6398 31.6457 34.4534C30.7268 34.3008 29.7283 34.0551 29.135 33.2246C28.491 32.3264 28.5344 30.9452 29.0119 29.9113C29.4895 28.8776 30.3216 28.1403 31.1826 27.5387C32.0436 26.937 32.9625 26.4371 33.7585 25.7253C35.1187 24.5051 40.8492 19.658 39.2212 17.6074C37.9188 15.9973 32.1739 19.6919 31.0524 20.6833Z" fill="#F2D6C9"/>
<path d="M54.1843 23.9796C54.2495 23.4966 53.9673 23.0475 53.7067 22.6661C53.135 21.8357 52.5633 20.9968 51.9847 20.1664C51.7099 19.7681 51.4346 19.3614 51.0946 19.0309C50.4219 18.3699 49.5534 18.0564 48.7141 17.7683C47.752 17.4378 46.6306 17.1582 45.8203 17.8445C45.2628 18.3191 45.0095 19.158 45.0095 19.963C45.0095 20.768 45.2339 21.5391 45.4798 22.2933C45.8418 23.4118 46.2323 24.5728 46.7462 25.6065C47.1729 26.4793 47.6506 26.4116 48.3741 26.0303C50.2627 25.0388 52.1292 24.2677 54.1843 23.9796Z" fill="#FCEE9F"/>
<path d="M32.0522 22.9881C32.6744 24.149 33.4414 25.1913 34.2083 26.2251C34.2662 26.3098 34.3386 26.3946 34.4326 26.3946C34.505 26.3946 34.5701 26.3437 34.6207 26.2928C35.2213 25.7505 35.6265 24.9794 36.1474 24.3354C37.1821 23.0644 38.6726 22.3187 39.4902 20.8527C39.9533 20.0138 40.1558 18.98 40.0545 17.9885C40.0184 17.6411 39.9388 17.2852 39.7506 17.0225C39.483 16.6412 39.0416 16.4886 38.6219 16.4886C38.0214 16.4886 37.4425 16.7344 36.8854 16.9887C35.3008 17.7089 33.738 18.5054 32.2041 19.3698C31.8278 19.5816 31.4444 19.8019 31.0681 20.0222C30.5761 20.3188 30.4531 20.3104 30.7715 20.8188C31.2273 21.5221 31.647 22.2254 32.0522 22.9881Z" fill="#FCEE9F"/>
<path d="M79.7184 94.5321C81.1077 94.5321 82.526 94.5154 83.8502 94.0156C83.9511 93.6508 83.763 93.2359 83.4882 93.0156C83.2133 92.7953 82.8806 92.7276 82.5475 92.6765C81.4335 92.5073 80.3048 92.4648 79.176 92.4224C74.7983 92.2698 70.4137 92.1171 66.0291 92.0833C65.4794 92.0747 63.1857 92.2531 63.8368 93.5578C64.2708 94.4305 66.3039 94.1258 67.0133 94.1677C69.7121 94.3203 72.411 94.4219 75.1167 94.4815C76.6506 94.5154 78.1845 94.5321 79.7184 94.5321Z" fill="url(#paint2_linear_9_1235)"/>
<path d="M79.7184 94.5325C81.1077 94.5325 82.526 94.5154 83.8502 94.0156C83.9511 93.6513 83.763 93.2359 83.4882 93.0156C83.2133 92.7953 82.8806 92.7276 82.5475 92.6765C81.4335 92.5072 80.3048 92.4648 79.176 92.4223C74.7983 92.2702 70.4137 92.1176 66.0291 92.0838C65.4794 92.0752 63.1857 92.2531 63.8368 93.5583C64.2708 94.431 66.3039 94.1258 67.0133 94.1682C69.7121 94.3208 72.411 94.4224 75.1167 94.4815C76.6506 94.5154 78.1845 94.5325 79.7184 94.5325Z" fill="url(#paint3_linear_9_1235)"/>
<path d="M83.2867 42.6303C83.2867 42.6303 83.5326 38.0884 76.5069 38.4104C76.3693 38.4189 76.239 38.4188 76.1091 38.4273C76.0582 38.4612 76.0151 38.4866 75.9641 38.5205C75.8627 38.8256 75.776 39.1306 75.7109 39.4442C75.6893 39.5289 75.6746 39.6645 75.6531 39.7916C75.6026 40.2831 75.6168 40.0628 75.6531 39.7916C75.6604 39.6899 75.6746 39.5628 75.6893 39.4018C75.6677 39.6052 75.6315 39.8086 75.6095 40.0035C75.3924 41.8168 75.4434 43.6472 75.3057 45.4606C75.1901 47.0113 74.9221 48.562 74.6331 50.0957C74.9079 50.0788 75.219 50.0873 75.3924 50.1636C75.7471 50.3161 75.9137 87.9397 75.3057 90.2783L78.0986 90.3127C78.106 90.3208 83.5179 51.6805 83.2867 42.6303Z" fill="#97A8B2"/>
<path d="M75.618 21.5052C74.8003 21.3696 73.9322 21.8695 73.534 22.717C73.2807 23.2593 73.2155 23.8948 73.1504 24.5134C72.9191 26.7081 72.6223 28.8943 72.268 31.0721C72.029 32.5465 72.0001 35.4785 70.2203 35.6226C69.5545 35.6818 68.8672 35.0887 68.2087 34.9701C67.1305 34.7667 66.1178 34.6989 65.0758 34.2583C64.2366 33.9024 63.6796 33.377 63.0501 32.6652C62.6738 32.233 62.1453 31.3772 61.6391 31.2162C61.2771 31.0976 60.8215 31.589 61.0454 31.9365C60.5971 31.6229 59.9529 32.1229 59.9314 32.7415C59.8878 33.9193 61.8704 34.5887 62.5724 35.0972C63.6576 35.8937 64.7285 36.7326 65.9077 37.3258C67.7673 38.2579 69.7789 38.7833 71.7977 38.8257C72.152 38.8341 72.5282 38.8172 72.8324 38.6054C73.4835 38.1393 73.8308 37.0462 74.33 36.3683C74.7857 35.7412 75.0316 35.3259 75.2417 34.5125C75.8203 32.2754 76.3195 29.979 76.6958 27.6826C77.0505 25.7506 78.2733 21.9628 75.618 21.5052Z" fill="#EADDD0"/>
<path d="M67.4271 56.1374C67.4707 57.5867 67.5574 59.0354 67.6368 60.4847C67.7597 62.654 67.8831 64.8233 67.9988 66.9927C68.035 67.6875 68.0928 68.4248 68.4544 68.9756C68.4907 69.0347 68.5342 69.0857 68.5921 69.111C68.7875 69.1959 68.9394 68.9073 69.0045 68.6789C69.7786 65.9502 70.922 63.3741 72.3907 61.0693C72.767 60.4847 73.1721 59.9 73.7149 59.5357C74.1201 59.2643 74.583 59.1203 75.046 58.9849C75.9577 58.7135 76.8767 58.4422 77.7884 58.1713C78.3239 58.0101 78.8809 57.8408 79.3003 57.4255C79.6334 57.095 79.8505 56.6377 80.0601 56.1885C81.1311 53.9256 82.2093 51.6381 82.7517 49.1297C83.1499 47.2993 83.2509 45.4012 83.222 43.52C83.222 43.3336 83.2151 43.1387 83.1568 42.9692C83.0774 42.732 82.904 42.5455 82.7228 42.4014C82.0354 41.8676 81.16 41.7998 80.335 41.7575C77.2021 41.5965 73.9971 41.5202 70.9289 42.3761C69.9814 42.6387 68.375 42.9099 67.9121 44.0878C67.3477 45.5283 67.5211 47.7654 67.456 49.3246C67.3619 51.587 67.3477 53.8665 67.4271 56.1374Z" fill="#97A8B2"/>
<path d="M73.8334 53.6209C72.0825 53.3415 70.3243 53.0701 68.5729 52.7907C68.4862 52.5279 68.9203 52.7988 68.8914 53.0701C67.9728 61.654 68.327 70.3738 69.0579 79.0087C69.3763 82.7283 69.3979 86.4652 69.0652 90.1767C69.7888 90.2702 71.0332 90.3971 71.7494 90.4905C73.081 78.9238 73.8839 67.3232 75.2154 55.7564C75.2806 55.1718 75.3237 54.4936 74.9402 54.0702C74.658 53.7564 74.2313 53.6801 73.8334 53.6209Z" fill="#97A8B2"/>
<path d="M71.5527 15.7429C72.6021 15.7006 73.6726 14.8701 74.8013 14.599C74.5049 13.5312 74.8595 12.3788 74.9536 11.2603C75.0839 9.74346 74.7219 8.23513 74.3457 6.78608C74.0419 5.61672 73.7019 4.40495 72.9852 3.50673C72.8407 3.32877 72.6741 3.15929 72.4791 3.09997C72.3052 3.04913 72.1244 3.08303 71.9506 3.10846C70.7135 3.32877 67.2769 3.49825 66.9511 5.12525C66.5024 7.35385 67.8119 10.3112 68.5501 12.2856C68.8975 13.2177 69.2517 14.1668 69.8596 14.8871C70.4098 15.5565 70.981 15.7683 71.5527 15.7429Z" fill="#EADDD0"/>
<path d="M83.5489 47.6383L83.5704 47.6128C83.5851 47.5959 83.5925 47.5789 83.6067 47.5704C83.6356 47.5196 83.6645 47.4772 83.6934 47.4264C84.0628 46.7654 84.3808 46.0706 84.7065 45.3842C85.3145 37.3679 84.54 29.2755 82.3912 21.3948C81.7181 18.9205 81.0528 16.1919 78.5274 14.4972C78.3971 14.4124 78.2599 14.3277 78.1007 14.2938C77.8905 14.2514 77.6735 14.3192 77.4712 14.3785C76.1107 14.7852 74.7507 15.192 73.383 15.6072C73.1154 15.6919 72.8402 15.7682 72.5653 15.8445C72.2758 15.9207 71.9867 15.9885 71.6899 16.0393C71.1833 16.1241 69.1938 16.6834 69.1213 17.2427C68.9479 18.6747 68.7886 20.1068 68.651 21.5473C68.3037 25.0978 68.0431 28.6399 68.0504 32.1989C68.0577 35.7495 67.7829 39.2915 67.2837 42.8082C67.2474 43.0793 67.0666 44.5114 66.8496 45.9774C66.8638 46.0028 66.8712 46.0282 66.8854 46.0536C67.0593 46.4434 67.2474 46.8163 67.4571 47.1806C67.4787 47.2145 67.5149 47.2738 67.5512 47.3416C67.5728 47.3671 67.5874 47.3925 67.6021 47.4094C67.8334 47.7229 68.094 48.0195 68.3615 48.2992C68.3835 48.3246 68.4193 48.3585 68.4629 48.4093C68.094 48.0026 68.4845 48.4178 68.5932 48.5026C68.8754 48.7229 69.1649 48.9263 69.4613 49.1042C69.5338 49.1466 69.8375 49.2991 69.8665 49.316C69.8954 49.333 69.9316 49.3414 69.9605 49.3584C74.2295 49.1465 78.4912 48.7991 82.7239 48.2992C82.9845 48.0534 83.2667 47.8077 83.5489 47.6383Z" fill="#E8E8E8"/>
<path d="M69.2509 89.8549C69.2073 89.8549 69.1641 89.8549 69.1206 89.8635C69.0627 89.8801 69.0265 89.9226 68.9903 89.9564C68.8384 90.1343 68.7227 90.3294 68.6576 90.5411C68.5998 90.7361 68.5851 90.9479 68.4621 91.1177C68.3249 91.3122 68.0717 91.431 67.8184 91.5239C67.1742 91.77 66.4795 91.9393 65.7779 92.0156C65.6187 92.0328 65.4595 92.0495 65.315 92.1005C64.9094 92.2612 64.8084 92.6766 64.7575 93.0409C64.7433 93.1425 64.7359 93.2698 64.8447 93.3289C64.9025 93.3628 64.9745 93.3628 65.047 93.3628C67.0728 93.3547 67.934 93.3547 69.9529 93.3547C70.4448 93.3547 70.9582 93.3375 71.4358 93.236C71.501 93.2188 71.5661 93.2107 71.6166 93.1682C71.6675 93.1258 71.6891 93.0662 71.7107 93.007C71.9786 92.1935 72.0075 91.3036 71.9497 90.4648C71.9281 90.202 71.8919 89.9903 71.5372 89.9312C71.0307 89.8463 71.5877 89.914 71.0743 89.8973C70.4737 89.8887 69.8588 89.8715 69.2509 89.8549Z" fill="#97A8B2"/>
<path d="M77.9971 7.37077C78.0045 6.64205 77.6429 5.98105 77.3387 5.34551C76.8322 4.2863 76.427 3.14234 75.8048 2.16785C75.1826 1.19336 74.2636 0.379879 73.2216 0.345984C72.7875 0.329036 72.3608 0.447678 71.941 0.566314C70.1469 1.07474 68.3378 1.59163 66.7025 2.59154C66.5001 2.71864 66.2904 2.85424 66.1601 3.08304C66.0441 3.27793 66.0083 3.52366 65.972 3.76093C65.9211 4.09141 65.8706 4.43035 65.8201 4.76083C65.7912 4.97268 65.755 5.18456 65.7908 5.3879C65.8995 6.02344 66.5364 6.30309 67.0934 6.34543C67.6431 6.37934 68.1859 6.2946 68.7287 6.20142C69.2495 6.11667 70.4796 5.60822 70.8994 6.15902C71.1091 6.43017 71.044 6.88779 71.1885 7.20978C71.3624 7.60807 71.6877 7.84532 71.9048 8.20122C72.1291 8.5317 72.2883 8.98926 72.1222 9.36214C72.426 9.15031 72.8022 9.08249 73.1496 9.18416C73.2725 9.21807 73.3955 9.27739 73.4749 9.38755C73.6272 9.60787 73.562 9.94684 73.3955 10.1502C73.2289 10.3536 72.9903 10.4468 72.7586 10.5315C73.7428 11.6416 74.1044 13.4465 73.6488 14.9633C74.4013 14.8701 75.0308 14.26 75.5516 13.616C76.0219 13.0313 76.4559 12.3957 76.7528 11.6755C76.8904 11.3365 76.9987 10.9891 77.1074 10.6417C77.3171 9.94679 77.5342 9.24349 77.7439 8.54862C77.8742 8.15882 77.9898 7.76907 77.9971 7.37077Z" fill="#333333"/>
<path d="M75.5356 89.9312C75.4925 89.9312 75.4489 89.9312 75.4058 89.9397C75.3475 89.9564 75.3113 89.9989 75.2755 90.0327C75.1232 90.2106 75.0075 90.4056 74.9424 90.6174C74.8845 90.8124 74.8703 91.0242 74.7473 91.1934C74.6097 91.3885 74.3564 91.5073 74.1031 91.6002C73.4594 91.8463 72.7647 92.0156 72.0627 92.0919C71.9035 92.1086 71.7443 92.1258 71.5997 92.1768C71.1946 92.3375 71.0932 92.7529 71.0427 93.1172C71.028 93.2188 71.0207 93.3461 71.1294 93.4052C71.1873 93.4391 71.2598 93.4391 71.3318 93.4391C73.358 93.4305 74.2188 93.4305 76.2376 93.4305C76.7295 93.4305 77.2434 93.4138 77.721 93.3123C77.7862 93.2951 77.8509 93.2865 77.9018 93.244C77.9523 93.2021 77.9743 93.1425 77.9959 93.0833C78.2634 92.2698 78.2923 91.3799 78.2345 90.5411C78.2129 90.2783 78.1767 90.0666 77.822 90.0075C77.3159 89.9226 77.8729 89.9903 77.359 89.9736C76.7515 89.965 76.1436 89.9478 75.5356 89.9312Z" fill="#97A8B2"/>
<path d="M61.4516 33.4279C61.2419 33.9194 61.0033 34.4024 60.7427 34.86C60.7065 34.9278 60.6633 34.9956 60.5982 35.0125C60.533 35.0379 60.4605 34.9956 60.4027 34.9617C59.7007 34.5549 59.0064 34.1482 58.3044 33.7499C58.471 31.8179 58.3769 29.4791 58.8541 27.6403C58.9193 27.3776 62.3633 28.0809 62.595 28.8181C62.8194 29.5469 62.1825 31.301 61.9728 32.0043C61.8283 32.4873 61.6544 32.9619 61.4516 33.4279Z" fill="#C7B299"/>
<path d="M58.6275 27.8435C58.7289 27.8689 58.8303 27.8774 58.9313 27.8859C59.1483 27.9113 59.3584 27.9621 59.5681 28.013C60.6028 28.2926 61.6086 28.6994 62.5997 29.14C62.6648 29.1654 62.73 29.1993 62.8025 29.1909C62.9108 29.1739 62.9906 29.0553 63.0195 28.9366C63.0484 28.8095 63.0337 28.6824 63.0195 28.5553C63.0195 28.5299 63.0122 28.5045 62.9979 28.4875C62.9832 28.4706 62.969 28.4621 62.947 28.4536C62.8965 28.4282 62.8456 28.4028 62.7951 28.3858C62.5634 28.2842 62.3248 28.1994 62.0862 28.1232C61.0515 27.7842 60.0095 27.4707 58.9675 27.1826C58.9171 27.1656 58.8519 27.1571 58.8083 27.191C58.7289 27.2588 58.6854 27.4283 58.6638 27.53C58.6275 27.6147 58.5119 27.8181 58.6275 27.8435Z" fill="#534741"/>
<path d="M58.5757 31.3008L61.6724 32.8769L62.2945 30.9618L58.5757 29.1908V31.3008Z" fill="#5B8C87"/>
<path d="M70.1962 9.58245C70.1819 9.5062 70.1021 9.42995 70.0227 9.43839C69.2482 9.53162 68.4889 9.73496 67.7433 9.95528C67.4831 10.0316 67.5987 10.4807 67.852 10.396C68.5247 10.1926 69.2124 10.0401 69.8851 9.8621C69.9718 10.2688 70.0443 10.684 70.0879 11.1078C70.1095 11.2942 70.1168 11.4806 70.1168 11.667C70.1237 12.006 69.6896 12.0314 69.5015 12.0737C69.2702 12.1246 69.0385 12.1415 68.8068 12.15C68.4668 12.167 68.4453 11.989 68.315 11.7263C68.1195 11.328 67.9676 10.9129 67.8304 10.4891C67.7868 10.3536 67.6061 10.4129 67.635 10.5485C67.7868 11.1586 67.9823 11.7772 68.2714 12.328C68.4815 12.7262 69.2629 12.4805 69.5813 12.4297C69.9356 12.3703 70.3916 12.2771 70.4348 11.8026C70.5146 11.0823 70.3554 10.2858 70.1962 9.58245Z" fill="#333333"/>
<path d="M72.0469 8.78586C71.3811 9.08243 70.7447 9.53156 70.1078 9.90439C69.9849 9.9722 70.0716 10.2094 70.2019 10.1586C70.8745 9.8959 71.5981 9.67563 72.2423 9.32817C72.5025 9.19259 72.3148 8.66721 72.0469 8.78586Z" fill="#333333"/>
<path d="M77.8087 21.5643C77.5485 20.395 76.4629 17.9545 75.3199 19.7086C74.9726 20.2424 74.8859 20.9543 74.8207 21.6237C74.2633 27.0215 73.6989 32.4108 73.1419 37.8086C72.8524 40.622 72.5344 43.5284 71.2896 45.952C71.0872 46.3418 70.8628 46.7231 70.7688 47.1638C70.6674 47.6044 70.7252 48.1213 71.0221 48.4179C70.6169 49.0111 70.9496 50.2991 71.6947 50.2313C71.8539 50.2143 71.9989 50.138 72.1288 50.0279C72.8744 49.4262 72.6862 48.3078 72.8597 47.3756C73.0914 46.1046 73.4241 44.8673 73.7571 43.6387C75.0304 38.8848 76.6295 34.2497 77.4833 29.3942C77.9316 26.8012 78.3804 24.115 77.8087 21.5643Z" fill="#EADDD0"/>
<path d="M74.9125 18.6494C74.623 18.7256 74.3266 18.8104 74.1091 19.0392C73.827 19.3358 73.7329 19.8018 73.6535 20.234C72.7854 25.1149 72.127 30.0467 71.6782 35.0123C73.1107 35.436 74.5505 35.8597 75.9835 36.2834C77.8069 31.6397 78.6241 26.4622 78.335 21.3695C78.2841 20.4628 78.1538 19.4544 77.5536 18.8781C76.83 18.2087 75.8022 18.4121 74.9125 18.6494Z" fill="#6087A2"/>
<path d="M15.6268 93.812C17.0812 93.761 18.5355 93.7019 19.9826 93.575C20.6844 93.5154 21.408 93.4305 22.0447 93.0748C22.392 92.8797 22.7466 92.4477 22.5874 92.0409C22.4571 91.7023 22.0664 91.6513 21.7408 91.6513C16.4951 91.6427 11.2421 91.6341 6.00368 92.0409C5.05586 92.1172 3.97777 92.287 3.43511 93.2021C2.76945 94.3375 4.75923 94.0157 5.17163 94.0237C6.32206 94.0409 7.47254 94.0409 8.61572 94.0237C10.96 93.9899 13.2898 93.9055 15.6268 93.812Z" fill="url(#paint4_linear_9_1235)"/>
<path d="M15.6286 93.8125C17.0829 93.7614 18.5372 93.7023 19.9843 93.575C20.6861 93.5158 21.4097 93.4309 22.0464 93.0752C22.3937 92.8801 22.7483 92.4481 22.5891 92.0413C22.4588 91.7022 22.0681 91.6512 21.7425 91.6512C16.4968 91.6431 11.2439 91.6345 6.00539 92.0413C5.05757 92.1176 3.97948 92.2869 3.43682 93.202C2.77116 94.3375 4.76093 94.0156 5.17334 94.0242C6.32377 94.0409 7.47425 94.0409 8.61743 94.0242C10.9617 93.9903 13.2915 93.9054 15.6286 93.8125Z" fill="url(#paint5_linear_9_1235)"/>
<path d="M26.2543 32.7415C26.3918 32.8855 26.5293 33.0211 26.7029 33.0804C26.9417 33.1567 27.1949 33.0635 27.4265 32.9703C27.5857 32.911 27.7376 32.8432 27.8968 32.7839C27.9546 32.7585 28.0198 32.733 28.056 32.6652C28.0921 32.5974 28.0849 32.5212 28.0776 32.4365C27.9257 30.7248 27.6508 29.03 27.2456 27.3776C26.6017 27.725 25.9649 28.0724 25.3209 28.4198C24.9736 28.6063 23.8087 28.9791 23.787 29.4706C23.7653 29.9706 24.5901 30.784 24.8579 31.123C25.2992 31.6907 25.7623 32.2331 26.2543 32.7415Z" fill="white"/>
<path d="M26.5479 27.064C26.736 26.9709 26.9386 26.8776 27.1484 26.9115C27.3511 26.9454 27.5536 27.1573 27.5247 27.3946C27.503 27.5641 26.736 27.9707 26.5986 28.064C26.2657 28.2928 25.9256 28.5046 25.5783 28.708C25.231 28.9113 24.8765 29.0978 24.522 29.2757C24.3266 29.3774 23.8997 29.6909 23.6682 29.5977C22.8216 29.2503 24.2977 28.3013 24.5509 28.1318C25.1949 27.7251 25.8678 27.3945 26.5479 27.064Z" fill="#333333"/>
<path d="M19.082 90.8887C18.7709 90.914 18.4526 90.9398 18.1487 90.8463C17.8448 90.7533 17.5554 90.5077 17.4613 90.1601C17.3817 89.8634 17.4179 89.4738 17.2008 89.304C17.1502 89.2616 17.0923 89.2449 17.0272 89.2363C16.9982 83.0249 17.1285 79.4407 17.0923 73.1025C17.36 70.9923 17.2008 69.0347 17.1574 66.9927C17.0272 60.5443 16.9042 54.0954 16.7739 47.6469C16.7595 46.791 16.7305 45.9013 16.3687 45.1048C15.7827 43.8167 14.4803 43.088 13.2575 42.5287C9.6253 40.8679 5.51557 38.4952 4.51705 43.8337C4.24936 45.2488 4.0323 46.6724 3.85142 48.113C3.72118 49.1383 3.61988 50.206 3.93824 51.2227C4.4809 52.9514 5.48666 57.1971 6.7601 58.4508C10.0811 61.7217 11.5282 65.4166 12.6208 69.7553C12.2807 71.204 12.6786 73.2546 12.8306 74.3734C13.5397 79.7373 15.0013 84.7284 15.7176 90.0923C15.4137 90.7533 15.2834 91.5244 15.3703 92.2703C15.3847 92.4224 15.4137 92.575 15.5005 92.6851C15.6235 92.8463 15.8261 92.8802 16.007 92.8969C16.5207 92.9393 17.0344 92.9565 17.5481 92.9479C17.9461 92.9393 18.373 92.8969 18.6768 92.5922C19.0748 92.2021 19.0965 91.5072 19.082 90.8887Z" fill="#998675"/>
<path d="M14.754 54.2056C13.7338 51.5704 10.0003 49.7993 6.47663 52.8074C4.37113 54.6038 5.97017 56.6039 6.43323 58.3831C6.99759 60.5444 7.37383 62.7728 7.54746 65.0351C7.88755 69.3991 7.5041 73.9242 6.38982 78.4579C5.65179 81.4747 5.63733 84.779 5.12362 87.7876C4.84144 89.4739 3.94421 91.7109 4.15404 93.3886C4.94995 93.3972 5.74589 93.4058 6.53454 93.4139C7.23637 93.4224 7.98161 93.4139 8.56772 92.9651C9.15379 92.5159 9.44317 91.4482 8.95117 90.8635C8.46637 91.05 7.95265 91.2364 7.4534 91.1005C5.26105 90.4906 8.12632 84.686 8.54597 83.4065C10.3331 77.9496 12.1203 72.4921 13.4154 67.0352C14.3705 63.0437 16.1577 57.807 14.754 54.2056Z" fill="#998675"/>
<path d="M15.4235 25.115C16.2918 27.6148 17.16 30.1061 18.0283 32.6058C18.267 33.2922 18.5058 34.021 18.3901 34.7412C18.1874 36.0208 16.9936 36.7072 15.9155 36.9953C13.7811 33.4448 11.5309 29.9874 9.17933 26.6318C7.84077 24.7252 5.75698 20.3188 8.83204 18.9884C12.3195 17.4885 14.3888 22.1322 15.4235 25.115Z" fill="#ACB18F"/>
<path d="M23.249 21.3187C23.5312 20.8273 23.9364 21.0476 24.291 21.4713C23.2997 25.6743 22.417 29.9112 21.6428 34.1736C21.404 35.4955 21.1001 36.953 20.1378 37.7156C19.7326 38.0376 19.2406 38.1986 18.7558 38.2918C17.8803 38.4698 16.8239 38.3765 16.3319 37.5122C15.6301 36.2751 16.4984 35.0718 17.193 34.2074C18.0106 33.199 18.3579 32.5465 18.8644 31.1738C20.0293 28.0046 21.6066 24.1999 23.249 21.3187Z" fill="#ACB18F"/>
<path d="M24.9052 21.1239C24.9848 21.0052 25.0282 20.8612 25.0789 20.7171C25.2019 20.3527 25.3249 19.9799 25.4479 19.6155C25.5058 19.446 25.5637 19.2766 25.5709 19.0986C25.5782 18.9207 25.5347 18.7258 25.4189 18.6071C25.3104 18.497 25.1585 18.4715 25.0138 18.5054C24.8691 18.5394 24.7533 18.6326 24.6375 18.7343C24.3843 18.9631 24.1745 19.2596 24.0298 19.5986C23.914 19.8698 23.8417 20.1663 23.6607 20.3782C23.5812 20.4714 23.4871 20.5476 23.4147 20.6578C23.3062 20.8188 23.2845 21.0476 23.3496 21.234C23.5884 21.8526 24.6303 21.5476 24.9052 21.1239Z" fill="#F2D6C9"/>
<path d="M19.2538 55.0869C18.8921 46.0199 18.0889 36.9784 17.0398 27.9707C16.6563 24.6659 16.1932 20.7341 13.2412 19.1918C10.5062 17.7598 7.13446 17.3954 5.35455 20.6154C4.35604 22.4204 4.13173 24.6066 3.92191 26.725C2.66294 39.6815 1.40399 52.6381 0.14502 65.5945C1.52699 65.6875 18.0672 68.5602 18.1396 67.3485C18.1396 67.3318 18.1396 67.3146 18.1396 67.306C18.2481 67.2979 18.3494 67.2721 18.4435 67.2216C18.8125 67.0266 18.921 66.5096 18.9861 66.0604C19.4709 62.4337 19.3985 58.7474 19.2538 55.0869Z" fill="#EBEFEB"/>
<path d="M24.3503 31.3264C24.3864 31.2332 24.4153 31.1315 24.466 31.0468C24.5745 30.8688 24.7626 30.801 24.9507 30.7756C25.1317 30.7502 25.3198 30.7672 25.5007 30.7333C26.065 30.6146 26.5281 29.9621 27.0925 30.0638C27.2661 30.0977 27.4253 30.1994 27.57 30.318C27.7581 30.479 27.9318 30.6909 27.9824 30.9536C28.0548 31.3688 27.8015 31.767 27.57 32.089C27.4397 32.267 27.3023 32.4534 27.1286 32.5636C26.9839 32.6568 26.8175 32.6907 26.6511 32.7331C26.2532 32.8432 25.8552 33.0127 25.5368 33.3347C25.2763 33.5974 25.0593 33.9617 24.7337 34.055C24.1404 34.2245 23.5833 33.4618 23.5182 32.8347C23.4386 32.1908 24.1476 31.8603 24.3503 31.3264Z" fill="#F2D6C9"/>
<path d="M24.747 33.555C24.4865 32.9449 24.226 32.3348 23.9728 31.7247C23.1552 31.8857 22.5402 32.6484 21.9541 33.3263C21.1438 34.2669 20.2683 35.1312 19.3349 35.9108C18.785 36.3684 18.1555 36.809 17.4898 36.6903C16.6794 36.5463 16.1585 35.6227 15.7388 34.7922C14.176 31.6654 12.6131 28.5301 11.0503 25.4033C9.81299 22.9289 8.43103 23.8356 7.54103 26.0558C6.73793 28.081 7.7726 30.3604 8.5685 32.1908C9.59596 34.555 10.7319 36.8514 11.9764 39.08C12.7072 40.3849 13.5827 41.7577 14.8851 42.1051C15.5073 42.2746 16.173 42.1814 16.788 41.9696C18.7777 41.3086 20.3551 39.5715 21.8239 37.8598C22.7717 36.7497 23.7123 35.6142 24.6312 34.4702C24.7325 34.3431 24.841 34.2076 24.8627 34.0296C24.8772 33.8771 24.8121 33.7075 24.747 33.555Z" fill="#ACB18F"/>
<path d="M15.8803 6.71841C15.5546 5.58291 15.041 4.18473 13.9918 3.88815C12.8558 3.57462 11.2496 4.44742 10.4247 5.29483C9.40453 6.3371 8.7678 7.81152 8.41326 9.33683C8.02257 10.9977 7.95741 12.845 8.59414 14.4042C9.23086 15.9633 10.6852 17.1327 12.1395 16.8785C13.1163 16.709 13.9484 15.9549 14.5851 15.0736C16.2204 12.8111 16.6834 9.51475 15.8803 6.71841Z" fill="#F2D6C9"/>
<path d="M10.9975 10.9806C10.6719 10.3112 9.68787 10.3452 9.39844 11.0315C9.18137 11.5399 9.96281 13.6075 10.0786 14.2431C10.3825 15.9294 8.83412 27.4368 9.23207 29.1061C6.90945 29.1655 4.56518 28.8689 2.35112 28.0384C2.12683 27.9537 1.88807 27.852 1.72889 27.6402C1.52629 27.3606 1.51904 26.9538 1.53351 26.5894C1.70717 21.1323 6.005 2.55769 11.7861 2.71869C12.4952 2.73564 13.1971 2.92207 13.8917 3.11696C14.3475 3.24407 14.8034 3.38814 15.2158 3.6593C16.0551 4.22704 16.576 5.30323 16.7858 6.41327C17.0029 7.52335 16.945 8.67578 16.8944 9.80279C16.8799 10.1503 13.4142 9.7943 13.0813 9.73503C12.7051 9.66722 12.0032 9.31981 11.627 9.50622C11.1928 9.71805 11.1422 10.5231 10.9975 10.9806Z" fill="#534741"/>
<path opacity="0.19" d="M5.94516 46.6893C4.94669 46.4605 4.03498 45.8928 3.14502 45.325C3.28973 44.8166 3.43446 44.3081 3.57193 43.7997C7.65271 45.5199 12.2906 45.3674 16.2846 43.3845C16.3498 44.1895 16.4076 44.9945 16.4728 45.7995C15.3875 46.0707 14.2804 46.1724 13.1806 46.2826C11.6757 46.4266 10.1779 46.5707 8.67293 46.7232C7.76848 46.808 6.84236 46.8926 5.94516 46.6893Z" fill="white"/>
</g>
<defs>
<linearGradient id="paint0_linear_9_1235" x1="32.4228" y1="91.2004" x2="54.4728" y2="91.2004" gradientUnits="userSpaceOnUse">
<stop stop-color="#4D4D4D"/>
<stop offset="1"/>
</linearGradient>
<linearGradient id="paint1_linear_9_1235" x1="32.4213" y1="91.2004" x2="54.4713" y2="91.2004" gradientUnits="userSpaceOnUse">
<stop/>
<stop offset="1"/>
</linearGradient>
<linearGradient id="paint2_linear_9_1235" x1="63.7332" y1="93.3092" x2="83.8812" y2="93.3092" gradientUnits="userSpaceOnUse">
<stop stop-color="#4D4D4D"/>
<stop offset="1"/>
</linearGradient>
<linearGradient id="paint3_linear_9_1235" x1="63.7332" y1="93.3097" x2="83.8812" y2="93.3097" gradientUnits="userSpaceOnUse">
<stop/>
<stop offset="1"/>
</linearGradient>
<linearGradient id="paint4_linear_9_1235" x1="3.3048" y1="92.858" x2="22.6239" y2="92.858" gradientUnits="userSpaceOnUse">
<stop stop-color="#4D4D4D"/>
<stop offset="1"/>
</linearGradient>
<linearGradient id="paint5_linear_9_1235" x1="3.30651" y1="92.8579" x2="22.6256" y2="92.8579" gradientUnits="userSpaceOnUse">
<stop/>
<stop offset="1"/>
</linearGradient>
<clipPath id="clip0_9_1235">
<rect width="85" height="95" fill="white"/>
</clipPath>
</defs>
</svg>
