<svg width="78" height="140" viewBox="0 0 78 140" fill="none" xmlns="http://www.w3.org/2000/svg">
<g opacity="0.9" clip-path="url(#clip0_64_37)">
<path d="M34.3125 36.7391L33.2698 60.8799L28.3669 78.5826H37.1937L41.7782 63.3299L43.2108 45.9957L34.3125 36.7391Z" fill="#F7EBE7"/>
<path d="M34.0654 121.117L35.8403 130.686L29.8789 131.506L28.1836 122.084L34.0654 121.117Z" fill="#FCC9A7"/>
<path d="M36.2007 129.821C36.0495 129.305 35.5719 129.121 35.2456 129.452C34.6089 130.106 33.4627 130.907 31.7674 130.714C30.0085 130.511 29.3478 129.314 29.0931 128.448C28.9578 127.997 28.5838 127.767 28.2495 127.96L17.5762 134.168C16.9315 134.546 16.422 135.246 16.1674 136.121C15.9286 136.94 16.4062 137.824 17.0748 137.806L35.5162 137.217C36.2405 137.198 36.7976 136.369 36.7339 135.411L36.4314 130.714C36.4235 130.64 36.4156 130.557 36.3917 130.484L36.2007 129.821Z" fill="#1F252A"/>
<path d="M33.9625 74.8431H20.1215C20.1215 74.8431 11.6927 74.2997 11.1913 82.3037C10.6898 90.3076 23.5519 113.205 25.5656 125.436L37.1382 124.331L28.8049 91.0721L49.5307 91.2102C51.0668 91.2195 52.5949 90.9616 54.0435 90.3813C58.0788 88.7602 64.2392 86.4392 60.8805 73.5813L33.9625 74.8431Z" fill="#092330"/>
<path d="M44.6455 121.153L47.4631 132.593L41.5016 133.413L38.7637 122.121L44.6455 121.153Z" fill="#FCC9A7"/>
<path d="M47.819 131.727C47.6678 131.211 47.1903 131.027 46.8639 131.359C46.2272 132.013 45.0811 132.814 43.3858 132.621C41.6268 132.418 40.9662 131.221 40.7115 130.355C40.5762 129.903 40.2021 129.673 39.8678 129.867L29.1945 136.074C28.5499 136.452 28.0405 137.152 27.7858 138.027C27.547 138.847 28.0245 139.731 28.6931 139.713L47.4529 139.123C48.1772 139.105 48.7343 138.276 48.6707 137.318L48.0419 132.621C48.0339 132.547 48.026 132.464 48.0021 132.39L47.819 131.727Z" fill="#1F252A"/>
<path d="M50.5013 27.2522C50.8117 27.6022 64.7006 31.7009 64.7006 31.7009L61.7318 40.8285L46.5457 39.5022L50.5013 27.2522Z" fill="#F7EBE7"/>
<path d="M44.7731 29.4537C44.7731 29.4537 35.7235 33.2761 34.3147 36.7393C34.8002 41.6301 36.2886 46.3366 38.74 50.3616C41.7486 55.2985 45.4655 63.7814 44.781 74.8432H70.9429C70.9429 74.8432 69.5341 43.7208 61.7898 31.7748L44.7731 29.4537Z" fill="#F7EBE7"/>
<path d="M47.7405 34.3904C50.3113 33.7825 51.9668 30.8811 51.4415 27.9061L49.9054 19.2021L40.6011 21.4035L42.1372 30.1074C42.6625 33.0824 45.1696 34.9982 47.7405 34.3904Z" fill="#FCC9A7"/>
<path d="M50.5448 22.2418C50.5448 22.2418 49.5659 29.2971 44.8222 29.7208C40.6675 30.0892 41.0655 23.1352 41.0655 23.1352L50.5448 22.2418Z" fill="#F4BE9A"/>
<path d="M45.1949 25.8522L46.0147 25.6312C50.1296 24.5259 52.6924 19.7733 51.7373 15.0206L50.6548 9.59565C49.6997 4.83381 45.5928 1.86802 41.4859 2.97328L40.666 3.19434C36.5511 4.2996 33.9882 9.05223 34.9434 13.8049L36.0259 19.2299C36.981 23.9917 41.0879 26.9575 45.1949 25.8522Z" fill="#FCC9A7"/>
<path d="M49.1584 17.2774C48.9674 17.6551 48.7842 18.2261 48.7206 19.0919C48.6489 20.1879 48.1714 21.2287 47.3755 21.8366C45.0912 23.5866 43.3482 19.1564 39.9735 19.9393C39.9735 19.9393 38.6523 20.1695 38.3896 21.8735C38.127 23.5682 36.2883 20.6024 35.8824 18.5761C35.4765 16.5498 35.2696 28.6064 43.579 27.584C43.579 27.584 47.7735 27.4274 50.599 22.4814C50.9094 21.9379 51.0924 21.3024 51.1083 20.6485C51.1322 19.6814 51.0129 18.2169 50.217 17.1669C49.9383 16.7801 49.3812 16.8353 49.1584 17.2774Z" fill="#1C2226"/>
<path d="M49.1665 14.5418C49.1665 14.5418 45.5769 13.1694 46.1818 7.09966C46.1818 7.09966 37.2675 16.8628 30.6614 9.69703C30.6614 9.69703 33.6143 8.78518 34.8321 6.44571C37.0527 2.18124 43.4359 -3.69508 48.5457 3.1023C48.5457 3.1023 54.7619 1.98783 52.979 13.0681L49.1665 14.5418Z" fill="#1C2226"/>
<path d="M49.1667 14.5418C49.5089 16.2366 50.9735 17.2958 52.438 16.9089C53.9105 16.5129 54.8177 14.8182 54.4834 13.1234C54.1412 11.4287 52.6767 10.3695 51.2122 10.7563C49.7398 11.1524 48.8245 12.8471 49.1667 14.5418Z" fill="#FCC9A7"/>
<path d="M44.628 34.0498L48.4723 34.1327L45.7821 40.5801L42.877 34.3998L44.628 34.0498Z" fill="#0C2C40"/>
<path d="M51.7668 27.538L46.8162 34.2248L50.0396 38.5077L55.9692 29.0761C55.9692 29.0761 54.449 26.2485 51.7668 27.538Z" fill="#FFF7F3"/>
<path d="M44.6293 34.0495L41.7799 37.7706L39.7742 31.968C39.7742 31.968 40.2995 29.3614 41.9391 29.8587L44.6293 34.0495Z" fill="#FFF7F3"/>
<path d="M45.678 38.4984C45.678 38.4984 41.9612 49.7168 42.8844 65.6326L46.5456 69.501L50.8196 64.7392L46.2114 37.7708L45.678 38.4984Z" fill="#0C2C40"/>
<path d="M52.6269 65.1353L44.6677 68.1655L44.1423 73.5721L54.6962 69.9247L52.6269 65.1353Z" fill="#FCC9A7"/>
<path d="M45.8544 71.7392C45.8544 74.8984 43.6416 77.4681 40.9037 77.4681C38.1737 77.4681 35.9531 74.9076 35.9531 71.7392C35.9531 68.58 38.1657 66.0103 40.9037 66.0103C43.6337 66.0103 45.8544 68.5708 45.8544 71.7392Z" fill="#FCC9A7"/>
<path d="M44.7732 74.8431H30.9401C30.9401 74.8431 22.5113 74.2997 22.0099 82.3036C21.5085 90.3076 35.3176 114.678 37.3313 126.901L48.904 125.796L39.6235 91.0628L60.3493 91.201C61.8854 91.2102 63.4136 90.9523 64.8621 90.372C68.8974 88.751 75.0578 86.4299 71.699 73.572L44.7732 74.8431Z" fill="#0C2C40"/>
<path d="M3.04198 46.5392H26.9593C27.7473 46.5392 28.4238 47.1747 28.5909 48.0681L33.0958 72.5129C33.3187 73.7102 32.5228 74.8431 31.4642 74.8431H7.14892C6.353 74.8431 5.66852 74.1892 5.51729 73.2866L1.41035 48.8418C1.20342 47.6444 1.99137 46.5392 3.04198 46.5392Z" fill="#B2B2B2"/>
<path d="M1.66478 46.5392H25.5742C26.3622 46.5392 27.0387 47.1747 27.2058 48.0681L31.7107 72.5129C31.9335 73.7102 31.1456 74.8431 30.0791 74.8431H5.77172C4.9758 74.8431 4.29132 74.1892 4.1401 73.2866L0.0331577 48.8418C-0.173781 47.6444 0.614168 46.5392 1.66478 46.5392Z" fill="#D1D1D1"/>
<path d="M32.4443 72.7524H48.7845C49.286 72.7524 49.6839 73.2222 49.6839 73.7932C49.6839 74.3735 49.278 74.834 48.7845 74.834H32.126L32.4443 72.7524Z" fill="#B2B2B2"/>
<path d="M16.4695 60.051C16.4695 61.7181 15.3074 63.0629 13.8668 63.0629C12.4262 63.0629 11.2642 61.7089 11.2642 60.051C11.2642 58.3839 12.4342 57.0392 13.8668 57.0392C15.3074 57.0392 16.4695 58.3839 16.4695 60.051Z" fill="white"/>
<path d="M58.9937 40.3957L67.7329 56.7259L46.8162 65.3654L49.6815 72.5312C49.6815 72.5312 67.5658 70.2101 76.2094 62.5009C77.0054 61.7917 77.4033 60.6404 77.268 59.4891C76.8621 55.8049 75.127 46.8615 67.7329 34.1509C66.2286 31.5628 63.236 30.7799 60.9039 32.3457C58.4764 33.9667 57.6247 37.5588 58.9937 40.3957Z" fill="#F7EBE7"/>
<path d="M52.3813 63.0629L67.7346 56.726L60.054 42.3668" stroke="#EADDD8" stroke-width="0.7599" stroke-miterlimit="10" stroke-linecap="round" stroke-linejoin="round"/>
<path d="M41.9847 57.6562L38.2041 46.1062" stroke="#EADDD8" stroke-width="0.7599" stroke-miterlimit="10" stroke-linecap="round" stroke-linejoin="round"/>
<path d="M52.627 72.043C52.627 72.043 64.3747 70.3391 70.2963 66.4154" stroke="#EADDD8" stroke-width="0.7599" stroke-miterlimit="10" stroke-linecap="round" stroke-linejoin="round"/>
</g>
<defs>
<clipPath id="clip0_64_37">
<rect width="78" height="140" fill="white"/>
</clipPath>
</defs>
</svg>
